#!OML:ASF H:\LiuWeirdWalks\Patient Classification 1\Patient 1\Session 1\male.ASF
:FULLY-SPECIFIED
:DEGREES
304
root 1.31621 16.1302 -24.4112 12.7603 5.85759 -0.0448695
lowerback 11.6249 0.648395 -3.5883
upperback 0.757238 0.438044 0.742294
thorax -5.7643 0.317141 2.7347
lowerneck -19.3606 -0.447384 4.82544
upperneck 13.9235 -1.71768 -1.18842
head 7.4011 -0.671679 -1.37545
rclavicle 2.75814e-015 1.56667e-014
rhumerus -26.2537 7.37902 -80.8385
rradius 48.0864
rwrist -12.0386
rhand -14.1792 -3.69352
rfingers 7.12502
rthumb 11.9563 -33.3321
lclavicle 2.75814e-015 1.56667e-014
lhumerus -12.2039 -3.44685 75.2266
lradius 75.1439
lwrist 17.5212
lhand -19.9581 -7.49305
lfingers 7.12502
lthumb 6.38028 22.3909
rfemur -30.2836 -13.3843 11.5193
rtibia 90.9979
rfoot 14.405 -10.6048
rtoes 6.79552
lfemur -31.4682 -1.30872 -23.6506
ltibia 70.4896
lfoot -19.399 12.6942
ltoes -30.4684
305
root 1.30038 16.1481 -24.2973 12.7933 5.75194 0.105361
lowerback 11.5774 0.560524 -3.90849
upperback 0.601159 0.277177 0.712274
thorax -5.89255 0.251229 2.91103
lowerneck -19.5369 -0.366224 4.85823
upperneck 13.954 -1.63744 -1.13058
head 7.44395 -0.625282 -1.3539
rclavicle -1.5791e-014 -5.96354e-015
rhumerus -27.0805 8.0383 -80.6994
rradius 49.6195
rwrist -12.101
rhand -14.1999 -3.93606
rfingers 7.12502
rthumb 11.9364 -33.5758
lclavicle -1.5791e-014 -5.96354e-015
lhumerus -11.4326 -3.76224 73.6531
lradius 76.3491
lwrist 17.5595
lhand -19.9119 -7.59197
lfingers 7.12502
lthumb 6.42482 22.2906
rfemur -31.0273 -13.7231 11.1917
rtibia 91.9767
rfoot 14.4662 -10.1673
rtoes 6.93684
lfemur -30.5687 -0.806663 -23.7106
ltibia 69.6352
lfoot -19.6638 12.5802
ltoes -30.5522
306
root 1.28326 16.1739 -24.1779 12.838 5.61821 0.255429
lowerback 11.5141 0.478491 -4.2671
upperback 0.438252 0.119871 0.693102
thorax -6.01834 0.189174 3.12011
lowerneck -19.7205 -0.285079 4.89114
upperneck 13.9844 -1.55511 -1.08802
head 7.48787 -0.579373 -1.33704
rclavicle -2.12575e-014 -4.89507e-015
rhumerus -27.9806 8.7469 -80.5356
rradius 51.1994
rwrist -12.1786
rhand -14.2326 -4.18316
rfingers 7.12502
rthumb 11.9048 -33.8247
lclavicle -2.12575e-014 -4.89507e-015
lhumerus -10.7068 -4.09815 71.9703
lradius 77.5445
lwrist 17.6087
lhand -19.8755 -7.68262
lfingers 7.12502
lthumb 6.46004 22.1989
rfemur -31.8171 -14.0762 10.8574
rtibia 92.984
rfoot 14.469 -9.69864
rtoes 6.99161
lfemur -29.5563 -0.242313 -23.7663
ltibia 68.5809
lfoot -19.9403 12.4823
ltoes -30.5837
307
root 1.26526 16.2082 -24.0525 12.881 5.45593 0.403051
lowerback 11.4422 0.40157 -4.65725
upperback 0.273277 -0.0340477 0.684435
thorax -6.14029 0.130737 3.3577
lowerneck -19.9166 -0.197367 4.93767
upperneck 14.0303 -1.46418 -1.07059
head 7.53894 -0.530837 -1.32973
rclavicle -5.55355e-015 -5.41688e-015
rhumerus -28.9392 9.50081 -80.3502
rradius 52.7886
rwrist -12.2425
rhand -14.2674 -4.40392
rfingers 7.12502
rthumb 11.8713 -34.0474
lclavicle -5.55355e-015 -5.41688e-015
lhumerus -10.0363 -4.44028 70.1881
lradius 78.7203
lwrist 17.6783
lhand -19.8542 -7.7673
lfingers 7.12502
lthumb 6.48054 22.1136
rfemur -32.624 -14.4417 10.5126
rtibia 94.004
rfoot 14.4205 -9.21101
rtoes 6.94809
lfemur -28.417 0.370494 -23.8133
ltibia 67.3195
lfoot -20.2068 12.3824
ltoes -30.577
308
root 1.24699 16.2516 -23.9202 12.9112 5.26857 0.549244
lowerback 11.366 0.326701 -5.07007
upperback 0.109008 -0.187658 0.684193
thorax -6.25743 0.0741463 3.61709
lowerneck -20.1236 -0.09766 5.0056
upperneck 14.1025 -1.3585 -1.08417
head 7.60065 -0.476759 -1.33451
rclavicle 5.39203e-015 -1.59028e-015
rhumerus -29.9455 10.2948 -80.1493
rradius 54.3526
rwrist -12.266
rhand -14.2981 -4.57784
rfingers 7.12502
rthumb 11.8417 -34.223
lclavicle 5.39203e-015 -1.59028e-015
lhumerus -9.43541 -4.7727 68.3213
lradius 79.8658
lwrist 17.761
lhand -19.8495 -7.85278
lfingers 7.12502
lthumb 6.48509 22.0279
rfemur -33.4199 -14.8222 10.1481
rtibia 95.0195
rfoot 14.3357 -8.71077
rtoes 6.79739
lfemur -27.1396 1.00539 -23.8523
ltibia 65.8473
lfoot -20.4352 12.2687
ltoes -30.5454
309
root 1.22916 16.3043 -23.7804 12.92 5.0648 0.692419
lowerback 11.2874 0.248682 -5.49041
upperback -0.0531801 -0.345971 0.69064
thorax -6.36865 0.0164401 3.88869
lowerneck -20.3301 0.0215271 5.1079
upperneck 14.2007 -1.22939 -1.13756
head 7.67136 -0.413246 -1.35525
rclavicle 8.72168e-015 4.96962e-016
rhumerus -30.9902 11.1217 -79.9412
rradius 55.8612
rwrist -12.2256
rhand -14.3208 -4.69483
rfingers 7.12502
rthumb 11.8198 -34.3413
lclavicle 8.72168e-015 4.96962e-016
lhumerus -8.92181 -5.07975 66.3894
lradius 80.9698
lwrist 17.8341
lhand -19.8566 -7.94515
lfingers 7.12502
lthumb 6.47821 21.9358
rfemur -34.1786 -15.2214 9.75865
rtibia 96.0137
rfoot 14.2338 -8.20146
rtoes 6.53883
lfemur -25.719 1.62586 -23.8818
ltibia 64.1669
lfoot -20.593 12.1351
ltoes -30.5019
310
root 1.21248 16.3666 -23.6327 12.903 4.85416 0.82911
lowerback 11.2032 0.162258 -5.90035
upperback -0.213069 -0.513424 0.702467
thorax -6.4713 -0.0452692 4.1616
lowerneck -20.5187 0.163088 5.24946
upperneck 14.3185 -1.07279 -1.23343
head 7.74633 -0.338559 -1.393
rclavicle -1.63997e-015 1.02374e-014
rhumerus -32.0656 11.9711 -79.7345
rradius 57.2876
rwrist -12.1049
rhand -14.3361 -4.75051
rfingers 7.12502
rthumb 11.805 -34.3978
lclavicle -1.63997e-015 1.02374e-014
lhumerus -8.51227 -5.34686 64.4181
lradius 82.0174
lwrist 17.8577
lhand -19.8655 -8.05833
lfingers 7.12502
lthumb 6.4697 21.8229
rfemur -34.8786 -15.6413 9.34195
rtibia 96.9707
rfoot 14.1325 -7.6829
rtoes 6.18556
lfemur -24.1582 2.19086 -23.9007
ltibia 62.2887
lfoot -20.6418 11.9817
ltoes -30.4607
311
root 1.19756 16.4382 -23.4768 12.8581 4.64602 0.950009
lowerback 11.1084 0.0634422 -6.27746
upperback -0.371078 -0.6919 0.720142
thorax -6.56272 -0.112842 4.42373
lowerneck -20.6751 0.323247 5.42149
upperneck 14.4541 -0.891836 -1.36375
head 7.82284 -0.253942 -1.44396
rclavicle 5.71506e-016 5.06901e-015
rhumerus -33.166 12.829 -79.5365
rradius 58.6105
rwrist -11.8965
rhand -14.3449 -4.74612
rfingers 7.12502
rthumb 11.7965 -34.3939
lclavicle 5.71506e-016 5.06901e-015
lhumerus -8.22151 -5.56486 62.4383
lradius 82.9929
lwrist 17.795
lhand -19.8705 -8.20717
lfingers 7.12502
lthumb 6.46484 21.6742
rfemur -35.505 -16.0789 8.9057
rtibia 97.8761
rfoot 14.047 -7.15453
rtoes 5.75906
lfemur -22.4692 2.65902 -23.9033
ltibia 60.2323
lfoot -20.538 11.8149
ltoes -30.439
312
root 1.18474 16.5189 -23.3126 12.786 4.44602 1.04012
lowerback 10.9964 -0.0491826 -6.59899
upperback -0.527651 -0.879485 0.747075
thorax -6.64004 -0.186359 4.66523
lowerneck -20.7894 0.493704 5.60537
upperneck 14.6086 -0.694417 -1.51311
head 7.89984 -0.162597 -1.50096
rclavicle 5.51627e-015 1.3418e-014
rhumerus -34.2853 13.6806 -79.3513
rradius 59.8114
rwrist -11.6042
rhand -14.3497 -4.68671
rfingers 7.12502
rthumb 11.7919 -34.3347
lclavicle 5.51627e-015 1.3418e-014
lhumerus -8.05971 -5.72909 60.4847
lradius 83.8791
lwrist 17.6168
lhand -19.8724 -8.40999
lfingers 7.12502
lthumb 6.463 21.4714
rfemur -36.0506 -16.5223 8.4686
rtibia 98.7178
rfoot 13.9864 -6.6178
rtoes 5.28723
lfemur -20.6736 2.99545 -23.8806
ltibia 58.0264
lfoot -20.2347 11.6438
ltoes -30.455
313
root 1.17421 16.6087 -23.1405 12.6877 4.25482 1.08076
lowerback 10.8618 -0.173122 -6.84171
upperback -0.681818 -1.06896 0.787382
thorax -6.70039 -0.263444 4.87578
lowerneck -20.8658 0.665397 5.78402
upperneck 14.7915 -0.490288 -1.66841
head 7.98107 -0.0686078 -1.55823
rclavicle -1.95803e-014 -7.15625e-015
rhumerus -35.4179 14.5072 -79.1797
rradius 60.8772
rwrist -11.2409
rhand -14.3576 -4.58329
rfingers 7.12502
rthumb 11.7843 -34.2318
lclavicle -1.95803e-014 -7.15625e-015
lhumerus -8.0289 -5.84357 58.5928
lradius 84.66
lwrist 17.313
lhand -19.8797 -8.68129
lfingers 7.12502
lthumb 6.45593 21.2003
rfemur -36.5131 -16.9515 8.05738
rtibia 99.4844
rfoot 13.9542 -6.07698
rtoes 4.7976
lfemur -18.7984 3.17495 -23.8221
ltibia 55.708
lfoot -19.6836 11.4806
ltoes -30.521
314
root 1.16597 16.7072 -22.9607 12.563 4.06726 1.05401
lowerback 10.7012 -0.302196 -6.98828
upperback -0.830802 -1.24914 0.845975
thorax -6.74104 -0.339654 5.04866
lowerneck -20.915 0.827643 5.93749
upperneck 15.0138 -0.291063 -1.81605
head 8.07172 0.0229584 -1.60959
rclavicle -7.05686e-015 -9.14409e-015
rhumerus -36.5576 15.2903 -79.019
rradius 61.7988
rwrist -10.8294
rhand -14.376 -4.45278
rfingers 7.12502
rthumb 11.7665 -34.1023
lclavicle -7.05686e-015 -9.14409e-015
lhumerus -8.12319 -5.91883 56.7964
lradius 85.3225
lwrist 16.8993
lhand -19.9116 -9.02109
lfingers 7.12502
lthumb 6.42514 20.8615
rfemur -36.8913 -17.3403 7.7011
rtibia 100.165
rfoot 13.9477 -5.54019
rtoes 4.31199
lfemur -16.8717 3.18508 -23.7206
ltibia 53.3193
lfoot -18.838 11.337
ltoes -30.645
315
root 1.15986 16.8146 -22.7737 12.4104 3.87471 0.941491
lowerback 10.5154 -0.427584 -7.02441
upperback -0.969884 -1.40613 0.928344
thorax -6.76015 -0.409116 5.1792
lowerneck -20.9482 0.976419 6.06238
upperneck 15.2754 -0.101373 -1.9573
head 8.17335 0.109512 -1.65558
rclavicle -1.88845e-015 -3.77691e-015
rhumerus -37.6947 16.012 -78.8644
rradius 62.5686
rwrist -10.3989
rhand -14.4142 -4.31578
rfingers 7.12502
rthumb 11.7297 -33.9674
lclavicle -1.88845e-015 -3.77691e-015
lhumerus -8.33058 -5.97034 55.125
lradius 85.8619
lwrist 16.4149
lhand -19.9886 -9.40845
lfingers 7.12502
lthumb 6.35084 20.4763
rfemur -37.1839 -17.658 7.43254
rtibia 100.747
rfoot 13.9569 -5.02243
rtoes 3.84674
lfemur -14.923 3.02714 -23.5685
ltibia 50.9067
lfoot -17.6558 11.22
ltoes -30.8305
316
root 1.1556 16.9307 -22.5799 12.2263 3.66626 0.732296
lowerback 10.3091 -0.538736 -6.94557
upperback -1.09216 -1.52557 1.03835
thorax -6.75562 -0.465403 5.26668
lowerneck -20.9766 1.10798 6.15682
upperneck 15.5679 0.0747916 -2.0973
head 8.28477 0.188257 -1.69813
rclavicle -2.28602e-015 -2.18663e-015
rhumerus -38.8167 16.6558 -78.7098
rradius 63.18
rwrist -9.98424
rhand -14.4846 -4.19673
rfingers 7.12502
rthumb 11.6618 -33.8522
lclavicle -2.28602e-015 -2.18663e-015
lhumerus -8.63311 -6.01537 53.6035
lradius 86.2816
lwrist 15.9132
lhand -20.128 -9.80478
lfingers 7.12502
lthumb 6.2162 20.084
rfemur -37.386 -17.8761 7.27658
rtibia 101.217
rfoot 13.9677 -4.54099
rtoes 3.40939
lfemur -12.9793 2.71426 -23.3661
ltibia 48.5176
lfoot -16.0995 11.1318
ltoes -31.0777
317
root 1.15276 17.0555 -22.3798 12.0061 3.43304 0.420098
lowerback 10.092 -0.625837 -6.75419
upperback -1.19058 -1.59561 1.17966
thorax -6.72752 -0.502842 5.31484
lowerneck -21.0057 1.22512 6.23173
upperneck 15.8722 0.240936 -2.25151
head 8.40053 0.259428 -1.74373
rclavicle -7.7526e-015 7.35503e-015
rhumerus -39.9105 17.2102 -78.5495
rradius 63.6285
rwrist -9.62319
rhand -14.5975 -4.11898
rfingers 7.12502
rthumb 11.5529 -33.7806
lclavicle -7.7526e-015 7.35503e-015
lhumerus -9.01482 -6.06912 52.2511
lradius 86.597
lwrist 15.4491
lhand -20.3305 -10.1613
lfingers 7.12502
lthumb 6.02072 19.7331
rfemur -37.4892 -17.971 7.25426
rtibia 101.563
rfoot 13.9625 -4.1199
rtoes 3.00266
lfemur -11.0695 2.26803 -23.1152
ltibia 46.2021
lfoot -14.1369 11.0672
ltoes -31.3865
318
root 1.15075 17.1887 -22.1742 11.7454 3.16855 0.00768588
lowerback 9.87696 -0.680759 -6.46319
upperback -1.25842 -1.60845 1.35411
thorax -6.67704 -0.517149 5.33226
lowerneck -21.0366 1.32871 6.29324
upperneck 16.1652 0.398747 -2.43073
head 8.51306 0.322562 -1.7967
rclavicle 2.80783e-015 -4.96962e-015
rhumerus -40.9618 17.6685 -78.3792
rradius 63.9096
rwrist -9.35
rhand -14.7594 -4.09772
rfingers 7.12502
rthumb 11.3968 -33.768
lclavicle 2.80783e-015 -4.96962e-015
lhumerus -9.46323 -6.14066 51.082
lradius 86.8327
lwrist 15.0614
lhand -20.5734 -10.4359
lfingers 7.12502
lthumb 5.78619 19.4651
rfemur -37.4802 -17.9266 7.37453
rtibia 101.771
rfoot 13.9237 -3.78653
rtoes 2.63385
lfemur -9.22526 1.71748 -22.8233
ltibia 44.0141
lfoot -11.7403 11.0155
ltoes -31.7395
